<svg width="23" height="21" viewBox="0 0 23 21" fill="none" xmlns="http://www.w3.org/2000/svg">
<path fill-rule="evenodd" clip-rule="evenodd" d="M2.75314 0.375C2.11309 0.375 1.49926 0.612053 1.04668 1.03401C0.5941 1.45597 0.339844 2.02826 0.339844 2.625V18.375C0.339844 18.9717 0.5941 19.544 1.04668 19.966C1.49926 20.3879 2.11309 20.625 2.75314 20.625H19.6462C20.2862 20.625 20.9001 20.3879 21.3526 19.966C21.8052 19.544 22.0595 18.9717 22.0595 18.375V2.625C22.0595 2.02826 21.8052 1.45597 21.3526 1.03401C20.9001 0.612053 20.2862 0.375 19.6462 0.375H2.75314ZM17.1726 8.0205C17.399 7.80955 17.5262 7.52339 17.5263 7.22496C17.5265 6.92653 17.3994 6.64028 17.1732 6.42919C16.9469 6.21809 16.64 6.09944 16.3199 6.09934C15.9998 6.09923 15.6928 6.21768 15.4664 6.42862L9.49346 11.9974L6.93416 9.61125C6.82213 9.50673 6.68912 9.4238 6.54271 9.3672C6.39631 9.31061 6.23938 9.28145 6.08089 9.2814C5.7608 9.28129 5.45378 9.39974 5.22736 9.61069C5.00095 9.82163 4.87368 10.1078 4.87357 10.4062C4.87346 10.7047 5.0005 10.9909 5.22676 11.202L8.55469 14.3048C8.67795 14.4197 8.8243 14.5109 8.98538 14.5732C9.14645 14.6354 9.3191 14.6674 9.49346 14.6674C9.66782 14.6674 9.84047 14.6354 10.0015 14.5732C10.1626 14.5109 10.309 14.4197 10.4322 14.3048L17.1726 8.0205Z" fill="#8B8B8B"/>
</svg>
