<svg width="55" height="62" viewBox="0 0 55 62" fill="none" xmlns="http://www.w3.org/2000/svg">
<path opacity="0.12" d="M45.3513 19.0557C45.3513 14.2952 43.4601 9.72956 40.0939 6.36332C36.7277 2.99709 32.1621 1.10596 27.4015 1.10596C22.6409 1.10596 18.0753 2.99709 14.7091 6.36332C11.3429 9.72956 9.45174 14.2952 9.45174 19.0557C9.45174 28.3004 7.11967 34.63 4.51455 38.8167C2.31708 42.3482 1.21835 44.1139 1.25864 44.6065C1.30325 45.1519 1.41879 45.3599 1.85831 45.686C2.25525 45.9804 4.04464 45.9804 7.62341 45.9804H47.1796C50.7584 45.9804 52.5478 45.9804 52.9447 45.686C53.3842 45.3599 53.4998 45.1519 53.5444 44.6065C53.5847 44.1139 52.4859 42.3482 50.2885 38.8167C47.6833 34.63 45.3513 28.3004 45.3513 19.0557Z" fill="#ECD099" stroke="#C1A979" stroke-width="2" stroke-linecap="round" stroke-linejoin="round"/>
<path d="M19.4862 57.9469C21.5957 59.8088 24.3667 60.9385 27.4015 60.9385C30.4364 60.9385 33.2073 59.8088 35.3168 57.9469M45.3513 19.0557C45.3513 14.2952 43.4601 9.72956 40.0939 6.36332C36.7277 2.99709 32.1621 1.10596 27.4015 1.10596C22.6409 1.10596 18.0753 2.99709 14.7091 6.36332C11.3429 9.72956 9.45174 14.2952 9.45174 19.0557C9.45174 28.3004 7.11967 34.63 4.51455 38.8167C2.31708 42.3482 1.21835 44.1139 1.25864 44.6065C1.30325 45.1519 1.41879 45.3599 1.85831 45.6859C2.25525 45.9804 4.04464 45.9804 7.62341 45.9804H47.1796C50.7584 45.9804 52.5478 45.9804 52.9447 45.6859C53.3842 45.3599 53.4998 45.1519 53.5444 44.6065C53.5847 44.1139 52.4859 42.3482 50.2885 38.8167C47.6833 34.63 45.3513 28.3004 45.3513 19.0557Z" stroke="#C1A979" stroke-width="2" stroke-linecap="round" stroke-linejoin="round"/>
</svg>
