<svg width="59" height="61" viewBox="0 0 59 61" fill="none" xmlns="http://www.w3.org/2000/svg">
<path opacity="0.12" d="M56.9688 21.2177V17.3953C56.9688 12.0436 56.9688 9.36766 55.9736 7.32355C55.0981 5.5255 53.7013 4.06364 51.9831 3.14749C50.0299 2.10596 47.4729 2.10596 42.359 2.10596L16.7917 2.10596C11.6778 2.10596 9.12084 2.10596 7.16758 3.14748C5.44945 4.06364 4.05256 5.5255 3.17712 7.32355C2.18189 9.36766 2.18189 12.0435 2.18188 17.3953L2.18188 21.2177L56.9688 21.2177Z" fill="#2C454A" stroke="#3C5D62" stroke-width="3.33333" stroke-linecap="round" stroke-linejoin="round"/>
<path d="M46.3158 46.7H12.8349M46.3158 33.9588H12.8349M2.18188 21.2177H56.9688M16.7917 2.10596H42.359C47.4729 2.10596 50.0299 2.10596 51.9831 3.14748C53.7013 4.06364 55.0981 5.5255 55.9736 7.32355C56.9688 9.36766 56.9688 12.0435 56.9688 17.3953V44.1517C56.9688 49.5035 56.9688 52.1794 55.9736 54.2235C55.0981 56.0216 53.7013 57.4834 51.9831 58.3996C50.0299 59.4411 47.4729 59.4411 42.359 59.4411H16.7917C11.6778 59.4411 9.12084 59.4411 7.16758 58.3996C5.44945 57.4834 4.05256 56.0216 3.17712 54.2235C2.18188 52.1794 2.18188 49.5035 2.18188 44.1517V17.3953C2.18188 12.0435 2.18188 9.36766 3.17712 7.32355C4.05256 5.5255 5.44945 4.06364 7.16758 3.14748C9.12084 2.10596 11.6778 2.10596 16.7917 2.10596Z" stroke="#3C5D62" stroke-width="2" stroke-linecap="round" stroke-linejoin="round"/>
</svg>
