<svg width="68" height="65" viewBox="0 0 68 65" fill="none" xmlns="http://www.w3.org/2000/svg">
<g opacity="0.5">
<path d="M54.8204 35.7297C61.0408 35.7297 66.0834 30.6871 66.0834 24.4667C66.0834 18.2463 61.0408 13.2036 54.8204 13.2036V35.7297Z" fill="#EC99B5"/>
<path d="M27.4672 9.9856H16.2042C8.20654 9.9856 1.72314 16.469 1.72314 24.4667C1.72315 32.4643 8.20654 38.9477 16.2042 38.9477H27.4673L27.4672 9.9856Z" fill="#EC99B5"/>
</g>
<path d="M8.15919 37.3384L13.2264 57.6073C13.3689 58.1774 13.4402 58.4624 13.5245 58.7113C14.348 61.1424 16.5373 62.8519 19.0957 63.0611C19.3576 63.0825 19.6514 63.0825 20.2389 63.0825C20.9747 63.0825 21.3426 63.0825 21.6526 63.0525C24.7159 62.7554 27.1401 60.3311 27.4372 57.2678C27.4673 56.9579 27.4673 56.59 27.4673 55.8542V9.98527M54.8204 35.7294C61.0408 35.7294 66.0835 30.6868 66.0835 24.4663C66.0835 18.2459 61.0408 13.2033 54.8204 13.2033M28.2718 9.98527H16.2042C8.20654 9.98527 1.72314 16.4687 1.72314 24.4663C1.72315 32.464 8.20654 38.9474 16.2042 38.9474H28.2718C33.9562 38.9474 40.9097 41.9945 46.2743 44.9189C49.4039 46.6249 50.9687 47.478 51.9936 47.3524C52.944 47.236 53.6626 46.8093 54.2197 46.0306C54.8204 45.1908 54.8204 43.5106 54.8204 40.15V8.78265C54.8204 5.42211 54.8204 3.74184 54.2197 2.90206C53.6626 2.12334 52.944 1.69662 51.9936 1.58023C50.9687 1.4547 49.4039 2.30772 46.2743 4.01377C40.9097 6.93817 33.9562 9.98527 28.2718 9.98527Z" stroke="#E55992" stroke-width="2" stroke-linecap="round" stroke-linejoin="round"/>
<path d="M8.15919 37.3384L13.2264 57.6073C13.3689 58.1774 13.4402 58.4624 13.5245 58.7113C14.348 61.1424 16.5373 62.8519 19.0957 63.0611C19.3576 63.0825 19.6514 63.0825 20.2389 63.0825C20.9747 63.0825 21.3426 63.0825 21.6526 63.0525C24.7159 62.7554 27.1401 60.3311 27.4372 57.2678C27.4673 56.9579 27.4673 56.59 27.4673 55.8542V9.98527M54.8204 35.7294C61.0408 35.7294 66.0835 30.6868 66.0835 24.4663C66.0835 18.2459 61.0408 13.2033 54.8204 13.2033M28.2718 9.98527H16.2042C8.20654 9.98527 1.72314 16.4687 1.72314 24.4663C1.72315 32.464 8.20654 38.9474 16.2042 38.9474H28.2718C33.9562 38.9474 40.9097 41.9945 46.2743 44.9189C49.4039 46.6249 50.9687 47.478 51.9936 47.3524C52.944 47.236 53.6626 46.8093 54.2197 46.0306C54.8204 45.1908 54.8204 43.5106 54.8204 40.15V8.78265C54.8204 5.42211 54.8204 3.74184 54.2197 2.90206C53.6626 2.12334 52.944 1.69662 51.9936 1.58023C50.9687 1.4547 49.4039 2.30772 46.2743 4.01377C40.9097 6.93817 33.9562 9.98527 28.2718 9.98527Z" stroke="black" stroke-opacity="0.2" stroke-width="2" stroke-linecap="round" stroke-linejoin="round"/>
</svg>
