<svg width="64" height="58" viewBox="0 0 64 58" fill="none" xmlns="http://www.w3.org/2000/svg">
<path opacity="0.12" d="M62.3372 28.9407C62.3372 44.2715 49.9092 56.6996 34.5784 56.6996C31.0619 56.6996 27.6981 56.0457 24.602 54.8529C24.0359 54.6348 23.7529 54.5258 23.5278 54.4739C23.3065 54.4229 23.1462 54.4016 22.9192 54.3929C22.6884 54.3841 22.4352 54.4102 21.9287 54.4626L5.20474 56.1913C3.61026 56.3562 2.81302 56.4386 2.34274 56.1517C1.93313 55.9019 1.65414 55.4845 1.57988 55.0105C1.49461 54.4662 1.87558 53.7611 2.63752 52.3508L7.97916 42.4636C8.41906 41.6493 8.63902 41.2422 8.73864 40.8508C8.83703 40.4642 8.86082 40.1854 8.82934 39.7877C8.79748 39.385 8.6208 38.8608 8.26745 37.8125C7.32847 35.0267 6.81951 32.0432 6.81951 28.9407C6.81951 13.6099 19.2476 1.18188 34.5784 1.18188C49.9092 1.18188 62.3372 13.6099 62.3372 28.9407Z" fill="#99DFEC"/>
<path d="M23.1482 37.1051C23.1482 37.1051 27.4346 42.0037 34.5784 42.0037C41.7222 42.0037 46.0085 37.1051 46.0085 37.1051M34.5784 56.6996C49.9092 56.6996 62.3372 44.2715 62.3372 28.9407C62.3372 13.6099 49.9092 1.18188 34.5784 1.18188C19.2476 1.18188 6.81951 13.6099 6.81951 28.9407C6.81951 32.0432 7.32847 35.0267 8.26745 37.8125C8.6208 38.8608 8.79748 39.385 8.82934 39.7877C8.86082 40.1854 8.83703 40.4642 8.73864 40.8508C8.63902 41.2422 8.41906 41.6493 7.97916 42.4636L2.63752 52.3508C1.87558 53.7611 1.49461 54.4662 1.57988 55.0105C1.65414 55.4845 1.93313 55.9019 2.34274 56.1517C2.81302 56.4386 3.61026 56.3562 5.20474 56.1913L21.9287 54.4626C22.4352 54.4102 22.6884 54.3841 22.9192 54.3929C23.1462 54.4016 23.3065 54.4229 23.5278 54.4739C23.7529 54.5258 24.0359 54.6348 24.602 54.8529C27.6981 56.0457 31.0619 56.6996 34.5784 56.6996ZM45.1921 20.7764C45.1921 21.6782 44.461 22.4092 43.5592 22.4092C42.6574 22.4092 41.9263 21.6782 41.9263 20.7764C41.9263 19.8746 42.6574 19.1435 43.5592 19.1435C44.461 19.1435 45.1921 19.8746 45.1921 20.7764ZM27.2304 20.7764C27.2304 21.6782 26.4994 22.4092 25.5976 22.4092C24.6957 22.4092 23.9647 21.6782 23.9647 20.7764C23.9647 19.8746 24.6957 19.1435 25.5976 19.1435C26.4994 19.1435 27.2304 19.8746 27.2304 20.7764Z" stroke="#44696F" stroke-width="2" stroke-linecap="round" stroke-linejoin="round"/>
</svg>
