<svg width="37" height="37" viewBox="0 0 37 37" fill="none" xmlns="http://www.w3.org/2000/svg">
<rect width="37" height="37" rx="5" fill="#FDE7ED"/>
<path d="M9.5 15.5924V21.4076H13.5L18.5 26.2537V10.7463L13.5 15.5924H9.5ZM16.7 15.5924V21.6548L14.33 19.4692H11.5V17.5308H14.33L16.7 15.5924ZM23 18.5C23 16.7845 21.98 15.3113 20.5 14.5941V22.3962C21.98 21.6887 23 20.2155 23 18.5ZM20.5 10V11.9966C23.39 12.8301 25.5 15.4276 25.5 18.5C25.5 21.5724 23.39 24.1699 20.5 25.0034V27C24.51 26.118 27.5 22.6482 27.5 18.5C27.5 14.3518 24.51 10.882 20.5 10Z" fill="#E55992"/>
<path d="M9.5 15.5924V21.4076H13.5L18.5 26.2537V10.7463L13.5 15.5924H9.5ZM16.7 15.5924V21.6548L14.33 19.4692H11.5V17.5308H14.33L16.7 15.5924ZM23 18.5C23 16.7845 21.98 15.3113 20.5 14.5941V22.3962C21.98 21.6887 23 20.2155 23 18.5ZM20.5 10V11.9966C23.39 12.8301 25.5 15.4276 25.5 18.5C25.5 21.5724 23.39 24.1699 20.5 25.0034V27C24.51 26.118 27.5 22.6482 27.5 18.5C27.5 14.3518 24.51 10.882 20.5 10Z" fill="black" fill-opacity="0.2"/>
</svg>
