<svg width="22" height="22" viewBox="0 0 22 22" fill="none" xmlns="http://www.w3.org/2000/svg">
<path d="M13.3588 6.9444C11.4095 5.85065 10.7007 4.33871 10.0627 3.24497C8.68048 0.993151 6.48309 0.317604 4.17938 0.832307C3.71864 0.0924223 2.90348 -0.261435 2.05288 0.221098C1.16684 0.703631 1.09595 1.54002 1.5567 2.27991C-0.0736222 3.88835 -0.569806 6.07583 0.776979 8.32766C1.45037 9.4214 2.44274 10.7725 2.47818 12.9278C2.51362 14.4719 1.16684 15.5013 3.18702 18.8147L18.3206 10.4508C16.3359 7.13741 14.741 7.71645 13.3588 6.9444Z" fill="#FFCE31"/>
<path d="M12.2951 7.52353C10.5585 6.30112 9.81422 4.82135 9.14083 3.72761C7.7586 1.47579 5.80931 0.639395 3.9309 0.928915C3.47016 0.189031 2.76132 -0.229165 2.05249 0.156862C1.34365 0.542888 1.34365 1.34711 1.80439 2.08699C0.563935 3.53459 0.351284 5.56123 1.69807 7.84522C2.37146 8.93897 3.32839 10.2901 3.57648 12.3489C3.71825 13.7965 2.69044 14.665 4.71061 18.0106L16.8317 11.3195C14.8115 7.9739 13.5356 8.39209 12.2951 7.52353Z" fill="#FFE62E"/>
<path d="M18.3209 10.4834C18.9588 11.545 16.1235 14.3115 11.9414 16.5955C7.75924 18.9116 3.86065 19.9089 3.18726 18.8473C2.54931 17.7857 5.38464 15.0192 9.56677 12.7352C13.7843 10.419 17.6829 9.42181 18.3209 10.4834Z" fill="#7D888E"/>
<path d="M17.931 10.8046C18.5335 11.7696 15.8045 14.311 11.8705 16.4984C7.93647 18.6538 4.28597 19.651 3.68347 18.6538C3.08096 17.6887 5.80997 15.1474 9.744 12.9599C13.678 10.8046 17.364 9.83949 17.931 10.8046Z" fill="#C28200"/>
<path d="M4.14355 17.2384C5.70299 17.0776 8.21935 16.1769 10.842 14.7293C13.4647 13.2817 15.5558 11.6411 16.4773 10.4508C14.9178 10.5795 12.4015 11.5124 9.74335 12.96C7.12066 14.4076 5.0296 16.0482 4.14355 17.2384Z" fill="#594640"/>
<path d="M6.3062 15.1795C6.05811 15.3725 5.84546 15.5334 5.63281 15.7264C6.19988 16.8523 7.47578 17.5279 8.82257 17.3027C7.75932 17.4957 6.69606 16.5628 6.3062 15.1795ZM10.4883 12.5739L9.9567 12.8634C9.9567 12.8634 9.9567 12.8955 9.99214 12.8955C10.2402 13.3137 10.4174 13.7641 10.5238 14.2145C10.6301 14.697 10.6301 15.1795 10.4883 15.6299C10.382 16.0803 10.0985 16.5306 9.74405 16.8201C9.49596 17.0775 9.21243 17.2383 8.85801 17.3027C10.4529 17.0132 11.5516 15.5656 11.2326 14.0215C11.1263 13.4424 10.8427 12.9599 10.4883 12.5739Z" fill="#F2B200"/>
<path d="M10.4883 14.2141C10.3819 13.7316 10.2047 13.2812 9.95665 12.8952C9.95665 12.8952 9.95665 12.863 9.92121 12.863C9.92121 12.863 9.88577 12.863 9.88577 12.8952C9.85032 12.9274 9.81488 12.9274 9.744 12.9595L9.70856 12.9917C8.43266 13.6994 7.26308 14.4715 6.30615 15.1792C6.69601 16.5625 7.75926 17.4632 8.82251 17.3023C9.17693 17.238 9.46047 17.0772 9.70856 16.8198C10.063 16.5303 10.3465 16.0799 10.4528 15.6296C10.5946 15.1792 10.5946 14.6967 10.4883 14.2141Z" fill="#FFCE31"/>
<path d="M18.9006 17.057L15.704 15.6303L17.0831 18.6627L18.9006 17.057ZM15.4214 19.3792L14.0478 16.8213L12.7206 19.3379L15.4214 19.3792ZM19.9599 15.3106L17.0604 14.0429L20.0186 13.2052L19.9599 15.3106Z" fill="#42ADE2"/>
</svg>
