<svg width="18" height="18" viewBox="0 0 18 18" fill="none" xmlns="http://www.w3.org/2000/svg">
<g clip-path="url(#clip0_789_4609)">
<path d="M5.21188 1.84375H6.57387V16.503H5.21188C3.25588 16.503 1.67188 14.9178 1.67188 12.9629V5.38375C1.67188 3.42895 3.25707 1.84375 5.21188 1.84375Z" fill="#F45A57"/>
<path d="M7.09375 11.8803C7.09375 10.8087 7.96615 9.9375 9.03775 9.9375C10.1093 9.9375 10.9806 10.8087 10.9806 11.8803C10.9806 12.9519 10.1082 13.8243 9.03775 13.8243C7.96735 13.8243 7.09375 12.9519 7.09375 11.8803Z" fill="#F45A57"/>
<path d="M7.09375 6.40494C7.09375 5.33334 7.96615 4.46094 9.03775 4.46094C10.1093 4.46094 10.9806 5.33334 10.9806 6.40494C10.9806 7.47654 10.1082 8.34894 9.03775 8.34894C7.96735 8.34894 7.09375 7.47654 7.09375 6.40494Z" fill="#F45A57"/>
<path d="M16.329 5.38375V12.9618C16.329 14.9177 14.7438 16.5017 12.789 16.5017H7.09375V13.3973C7.54495 13.9757 8.24815 14.3489 9.03775 14.3489C10.3974 14.3489 11.5038 13.2425 11.5038 11.8829C11.5038 10.5233 10.3974 9.41695 9.03775 9.41695C8.24815 9.41695 7.54495 9.79015 7.09375 10.3686V7.91935C7.54495 8.49775 8.24815 8.87095 9.03775 8.87095C10.3974 8.87095 11.5038 7.76455 11.5038 6.40495C11.5038 5.04535 10.3974 3.93895 9.03775 3.93895C8.24815 3.93895 7.54495 4.31215 7.09375 4.89055V1.84375H12.7877C14.7425 1.84375 16.3278 3.42895 16.3278 5.38375H16.329Z" fill="#F45A57"/>
</g>
<defs>
<clipPath id="clip0_789_4609">
<rect width="18" height="18" fill="white"/>
</clipPath>
</defs>
</svg>
