<svg width="100%" height="100%" viewBox="0 0 56 57" fill="none" xmlns="http://www.w3.org/2000/svg">
<path d="M6.22222 56.0195C4.51111 56.0195 3.04682 55.4108 1.82933 54.1933C0.611852 52.9758 0.00207407 51.5105 0 49.7973V6.24175C0 4.53064 0.609778 3.06635 1.82933 1.84886C3.04889 0.631383 4.51319 0.0216053 6.22222 0.0195312H34.2222V6.24175H6.22222V49.7973H49.7778V21.7973H56V49.7973C56 51.5084 55.3913 52.9737 54.1738 54.1933C52.9563 55.4129 51.491 56.0216 49.7778 56.0195H6.22222ZM15.5556 43.5751V37.3529H40.4444V43.5751H15.5556ZM15.5556 34.2417V28.0195H40.4444V34.2417H15.5556ZM15.5556 24.9084V18.6862H40.4444V24.9084H15.5556ZM43.5556 18.6862V12.464H37.3333V6.24175H43.5556V0.0195312H49.7778V6.24175H56V12.464H49.7778V18.6862H43.5556Z" fill="currentColor"/>
</svg>
