<svg width="37" height="37" viewBox="0 0 37 37" fill="none" xmlns="http://www.w3.org/2000/svg">
<rect width="37" height="37" rx="5" fill="#CFD5D6"/>
<path d="M18.991 10C14.023 10 10 14.032 10 19C10 23.968 14.023 28 18.991 28C23.968 28 28 23.968 28 19C28 14.032 23.968 10 18.991 10ZM25.228 15.4H22.573C22.285 14.275 21.871 13.195 21.331 12.196C22.987 12.763 24.364 13.915 25.228 15.4ZM19 11.836C19.747 12.916 20.332 14.113 20.719 15.4H17.281C17.668 14.113 18.253 12.916 19 11.836ZM12.034 20.8C11.89 20.224 11.8 19.621 11.8 19C11.8 18.379 11.89 17.776 12.034 17.2H15.076C15.004 17.794 14.95 18.388 14.95 19C14.95 19.612 15.004 20.206 15.076 20.8H12.034ZM12.772 22.6H15.427C15.715 23.725 16.129 24.805 16.669 25.804C15.013 25.237 13.636 24.094 12.772 22.6ZM15.427 15.4H12.772C13.636 13.906 15.013 12.763 16.669 12.196C16.129 13.195 15.715 14.275 15.427 15.4ZM19 26.164C18.253 25.084 17.668 23.887 17.281 22.6H20.719C20.332 23.887 19.747 25.084 19 26.164ZM21.106 20.8H16.894C16.813 20.206 16.75 19.612 16.75 19C16.75 18.388 16.813 17.785 16.894 17.2H21.106C21.187 17.785 21.25 18.388 21.25 19C21.25 19.612 21.187 20.206 21.106 20.8ZM21.331 25.804C21.871 24.805 22.285 23.725 22.573 22.6H25.228C24.364 24.085 22.987 25.237 21.331 25.804ZM22.924 20.8C22.996 20.206 23.05 19.612 23.05 19C23.05 18.388 22.996 17.794 22.924 17.2H25.966C26.11 17.776 26.2 18.379 26.2 19C26.2 19.621 26.11 20.224 25.966 20.8H22.924Z" fill="#616464"/>
</svg>
