<svg width="37" height="37" viewBox="0 0 37 37" fill="none" xmlns="http://www.w3.org/2000/svg">
<rect width="37" height="37" rx="5" fill="#F9E6E1"/>
<path d="M25.2082 13.7082C25.2082 12.654 24.3457 11.7915 23.2915 11.7915H20.4165V13.7082H23.2915V16.2478L19.9565 20.4165H16.5832V15.6248H12.7498C10.6319 15.6248 8.9165 17.3403 8.9165 19.4582V22.3332H10.8332C10.8332 23.924 12.1173 25.2082 13.7082 25.2082C15.299 25.2082 16.5832 23.924 16.5832 22.3332H20.8765L25.2082 16.9186V13.7082ZM10.8332 20.4165V19.4582C10.8332 18.404 11.6957 17.5415 12.7498 17.5415H14.6665V20.4165H10.8332ZM13.7082 23.2915C13.1811 23.2915 12.7498 22.8603 12.7498 22.3332H14.6665C14.6665 22.8603 14.2353 23.2915 13.7082 23.2915Z" fill="#E17051"/>
<path d="M16.5832 12.75H11.7915V14.6667H16.5832V12.75Z" fill="#E17051"/>
<path d="M25.208 19.458C23.6172 19.458 22.333 20.7422 22.333 22.333C22.333 23.9238 23.6172 25.208 25.208 25.208C26.7988 25.208 28.083 23.9238 28.083 22.333C28.083 20.7422 26.7988 19.458 25.208 19.458ZM25.208 23.2913C24.6809 23.2913 24.2497 22.8601 24.2497 22.333C24.2497 21.8059 24.6809 21.3747 25.208 21.3747C25.7351 21.3747 26.1663 21.8059 26.1663 22.333C26.1663 22.8601 25.7351 23.2913 25.208 23.2913Z" fill="#E17051"/>
</svg>
