<svg width="47" height="47" viewBox="0 0 47 47" fill="none" xmlns="http://www.w3.org/2000/svg">
<path d="M39.166 15.6673L23.4993 25.459L7.83268 15.6673V11.7507L23.4993 21.5423L39.166 11.7507M39.166 7.83398H7.83268C5.65893 7.83398 3.91602 9.5769 3.91602 11.7507V35.2507C3.91602 36.2894 4.32866 37.2856 5.06318 38.0202C5.7977 38.7547 6.79392 39.1673 7.83268 39.1673H39.166C40.2048 39.1673 41.201 38.7547 41.9355 38.0202C42.67 37.2856 43.0827 36.2894 43.0827 35.2507V11.7507C43.0827 10.7119 42.67 9.71567 41.9355 8.98115C41.201 8.24663 40.2048 7.83398 39.166 7.83398Z" fill="black"/>
</svg>
