<svg width="100%" height="100%" viewBox="0 0 59 59" fill="none" xmlns="http://www.w3.org/2000/svg">
<path d="M6.76075 24.5833C6.76075 24.0943 6.56649 23.6253 6.22072 23.2796C5.87495 22.9338 5.40599 22.7396 4.917 22.7396C4.428 22.7396 3.95904 22.9338 3.61327 23.2796C3.2675 23.6253 3.07325 24.0943 3.07325 24.5833H6.76075ZM52.2399 34.4166C52.2399 34.9056 52.4342 35.3746 52.7799 35.7204C53.1257 36.0661 53.5947 36.2604 54.0837 36.2604C54.5727 36.2604 55.0416 36.0661 55.3874 35.7204C55.7332 35.3746 55.9274 34.9056 55.9274 34.4166H52.2399ZM3.33137 14.5705C3.28378 15.0572 3.43147 15.5429 3.74198 15.9207C4.05248 16.2985 4.50035 16.5375 4.98706 16.5851C5.47377 16.6327 5.95945 16.485 6.33726 16.1745C6.71508 15.864 6.95407 15.4161 7.00166 14.9294L3.33137 14.5705ZM55.6693 44.4294C55.6929 44.1884 55.6687 43.9452 55.5983 43.7135C55.5278 43.4818 55.4124 43.2663 55.2587 43.0792C55.1049 42.8922 54.9158 42.7372 54.7022 42.6232C54.4886 42.5092 54.2546 42.4384 54.0136 42.4148C53.7726 42.3913 53.5293 42.4154 53.2977 42.4858C53.066 42.5563 52.8505 42.6717 52.6634 42.8254C52.2856 43.1359 52.0466 43.5838 51.999 44.0705L55.6693 44.4294ZM34.417 52.2396H24.5837V55.9271H34.417V52.2396ZM6.76075 34.4166V24.5833H3.07325V34.4166H6.76075ZM52.2399 33.3423V34.4166H55.9274V33.3423H52.2399ZM36.6074 11.3353L46.3399 20.0944L48.8056 17.3509L39.0755 8.59185L36.6074 11.3353ZM55.9274 33.3423C55.9274 29.1902 55.9643 26.5598 54.9195 24.2096L51.5491 25.7117C52.203 27.1818 52.2399 28.8657 52.2399 33.3423H55.9274ZM46.3399 20.0944C49.666 23.0886 50.8952 24.2441 51.5491 25.7117L54.9195 24.2096C53.8722 21.857 51.8933 20.1288 48.8056 17.3509L46.3399 20.0944ZM24.6574 6.76039C28.5465 6.76039 30.0141 6.78989 31.3195 7.29139L32.6421 3.84972C30.5476 3.04339 28.2662 3.07289 24.6574 3.07289V6.76039ZM39.0755 8.59431C36.4058 6.19252 34.7366 4.65114 32.6421 3.84972L31.322 7.29139C32.6298 7.79289 33.7311 8.74672 36.6074 11.3353L39.0755 8.59431ZM24.5837 52.2396C19.8956 52.2396 16.567 52.2346 14.0374 51.8954C11.5668 51.5635 10.141 50.9391 9.10108 49.8992L6.49525 52.5051C8.33408 54.3488 10.667 55.1625 13.5482 55.5509C16.3753 55.932 20.0013 55.9271 24.5837 55.9271V52.2396ZM3.07325 34.4166C3.07325 38.999 3.06833 42.6226 3.44937 45.4521C3.83779 48.3333 4.65395 50.6662 6.49279 52.5075L9.09862 49.9017C8.0612 48.8593 7.43679 47.4335 7.10491 44.9604C6.76566 42.4357 6.76075 39.1047 6.76075 34.4166H3.07325ZM34.417 55.9271C38.9993 55.9271 42.6229 55.932 45.4525 55.5509C48.3336 55.1625 50.6666 54.3463 52.5079 52.5075L49.902 49.9017C48.8597 50.9391 47.4339 51.5635 44.9608 51.8954C42.4361 52.2346 39.105 52.2396 34.417 52.2396V55.9271ZM24.6574 3.07289C20.048 3.07289 16.4072 3.06797 13.5679 3.44902C10.6744 3.83743 8.33408 4.6536 6.49279 6.49243L9.09862 9.09827C10.141 8.06085 11.5692 7.43643 14.0571 7.10456C16.5965 6.76531 19.9448 6.76039 24.6574 6.76039V3.07289ZM7.00166 14.9294C7.29912 11.8958 7.94074 10.2586 9.10108 9.10072L6.49525 6.49489C4.44008 8.54514 3.66079 11.2124 3.33137 14.5705L7.00166 14.9294ZM51.999 44.0705C51.7015 47.1041 51.0575 48.7413 49.8996 49.8992L52.5054 52.5051C54.5606 50.4548 55.3399 47.7875 55.6693 44.4294L51.999 44.0705Z" fill="currentColor"/>
<path d="M31.959 6.146V12.2918C31.959 18.0861 31.959 20.9845 33.7585 22.784C35.558 24.5835 38.4564 24.5835 44.2507 24.5835H54.084" stroke="currentColor" stroke-width="3.125"/>
</svg>
