<svg width="100%" height="100%" viewBox="0 0 18 19" fill="none" xmlns="http://www.w3.org/2000/svg">
<path d="M13.2632 0.0332031C13.9881 0.0331627 14.6856 0.310143 15.2131 0.807472C15.7405 1.3048 16.058 1.98488 16.1005 2.70857L16.1053 2.87531V12.349H16.8158C17.4287 12.349 17.9337 12.8151 17.9943 13.4119L18 13.5332V15.1911C18 15.916 17.7231 16.6136 17.2257 17.141C16.7284 17.6685 16.0483 17.9859 15.3246 18.0285L15.1579 18.0332H5.68421C4.95927 18.0332 4.26172 17.7563 3.73428 17.2589C3.20684 16.7616 2.88937 16.0815 2.84684 15.3578L2.84211 15.1911V5.71741H1.18421C0.89104 5.71755 0.608241 5.60893 0.390538 5.41258C0.172835 5.21622 0.0357049 4.9461 0.00568425 4.65447L4.41516e-09 4.5332V2.87531C-4.03785e-05 2.15037 0.27694 1.45282 0.774269 0.925377C1.2716 0.397933 1.95168 0.0804697 2.67537 0.0379401L2.84211 0.0332031H13.2632ZM13.2632 1.92794H4.73684V15.1911C4.73684 15.4424 4.83665 15.6833 5.01432 15.861C5.19199 16.0387 5.43295 16.1385 5.68421 16.1385C5.93547 16.1385 6.17643 16.0387 6.3541 15.861C6.53177 15.6833 6.63158 15.4424 6.63158 15.1911V13.5332C6.63158 12.8795 7.16211 12.349 7.81579 12.349H14.2105V2.87531C14.2105 2.62405 14.1107 2.38308 13.933 2.20542C13.7554 2.02775 13.5144 1.92794 13.2632 1.92794ZM16.1053 14.2437H8.52632V15.1911C8.52632 15.5227 8.46947 15.8419 8.36526 16.1385H15.1579C15.4092 16.1385 15.6501 16.0387 15.8278 15.861C16.0055 15.6833 16.1053 15.4424 16.1053 15.1911V14.2437ZM9.47368 8.55952C9.72494 8.55952 9.96591 8.65933 10.1436 8.837C10.3212 9.01466 10.4211 9.25563 10.4211 9.50689C10.4211 9.75815 10.3212 9.99911 10.1436 10.1768C9.96591 10.3544 9.72494 10.4543 9.47368 10.4543H7.57895C7.32769 10.4543 7.08672 10.3544 6.90906 10.1768C6.73139 9.99911 6.63158 9.75815 6.63158 9.50689C6.63158 9.25563 6.73139 9.01466 6.90906 8.837C7.08672 8.65933 7.32769 8.55952 7.57895 8.55952H9.47368ZM11.3684 4.77005C11.6197 4.77005 11.8606 4.86986 12.0383 5.04752C12.216 5.22519 12.3158 5.46616 12.3158 5.71741C12.3158 5.96867 12.216 6.20964 12.0383 6.3873C11.8606 6.56497 11.6197 6.66478 11.3684 6.66478H7.57895C7.32769 6.66478 7.08672 6.56497 6.90906 6.3873C6.73139 6.20964 6.63158 5.96867 6.63158 5.71741C6.63158 5.46616 6.73139 5.22519 6.90906 5.04752C7.08672 4.86986 7.32769 4.77005 7.57895 4.77005H11.3684ZM2.84211 1.92794C2.61006 1.92797 2.3861 2.01316 2.2127 2.16735C2.0393 2.32155 1.92852 2.53402 1.90137 2.76447L1.89474 2.87531V3.82268H2.84211V1.92794Z" fill="currentColor"/>
</svg>
