<svg width="37" height="37" viewBox="0 0 37 37" fill="none" xmlns="http://www.w3.org/2000/svg">
<rect width="37" height="37" rx="5" fill="#E1F4F9"/>
<path d="M16 20.5H20V18.5H16V20.5ZM16 17.5H24V15.5H16V17.5ZM16 14.5H24V12.5H16V14.5ZM14 24.5C13.45 24.5 12.9793 24.3043 12.588 23.913C12.196 23.521 12 23.05 12 22.5V10.5C12 9.95 12.196 9.479 12.588 9.087C12.9793 8.69567 13.45 8.5 14 8.5H26C26.55 8.5 27.021 8.69567 27.413 9.087C27.8043 9.479 28 9.95 28 10.5V22.5C28 23.05 27.8043 23.521 27.413 23.913C27.021 24.3043 26.55 24.5 26 24.5H14ZM14 22.5H26V10.5H14V22.5ZM10 28.5C9.45 28.5 8.97933 28.3043 8.588 27.913C8.196 27.521 8 27.05 8 26.5V12.5H10V26.5H24V28.5H10Z" fill="#7AB6C1"/>
</svg>
