<svg width="100%" height="100%" viewBox="0 0 108 108" fill="currentColor" xmlns="http://www.w3.org/2000/svg">
<g clip-path="url(#clip0_1415_3392)">
<path d="M40.5137 37.125C40.5137 39.8103 39.4469 42.3857 37.5481 44.2845C35.6493 46.1833 33.074 47.25 30.3887 47.25C27.7034 47.25 25.128 46.1833 23.2292 44.2845C21.3304 42.3857 20.2637 39.8103 20.2637 37.125C20.2637 34.4397 21.3304 31.8643 23.2292 29.9655C25.128 28.0667 27.7034 27 30.3887 27C33.074 27 35.6493 28.0667 37.5481 29.9655C39.4469 31.8643 40.5137 34.4397 40.5137 37.125Z" fill="currentColor"/>
<path d="M10.125 13.5C7.43968 13.5 4.86435 14.5667 2.96554 16.4655C1.06674 18.3643 0 20.9397 0 23.625L0 84.375C0 87.0603 1.06674 89.6357 2.96554 91.5345C4.86435 93.4333 7.43968 94.5 10.125 94.5H97.875C100.56 94.5 103.136 93.4333 105.034 91.5345C106.933 89.6357 108 87.0603 108 84.375V23.625C108 20.9397 106.933 18.3643 105.034 16.4655C103.136 14.5667 100.56 13.5 97.875 13.5H10.125ZM97.875 20.25C98.7701 20.25 99.6286 20.6056 100.261 21.2385C100.894 21.8715 101.25 22.7299 101.25 23.625V64.125L75.7688 50.9827C75.1358 50.6657 74.4191 50.5557 73.7201 50.6683C73.0211 50.781 72.3753 51.1106 71.874 51.6105L46.8315 76.653L28.8765 64.692C28.2282 64.2604 27.4506 64.0663 26.6756 64.1426C25.9005 64.2188 25.1757 64.5608 24.624 65.1105L6.7635 81V84.645L6.75 84.375V23.625C6.75 22.7299 7.10558 21.8715 7.73851 21.2385C8.37145 20.6056 9.22989 20.25 10.125 20.25H97.875Z" fill="currentColor"/>
</g>
<defs>
<clipPath id="clip0_1415_3392">
<rect width="108" height="108" fill="white"/>
</clipPath>
</defs>
</svg>
