<svg width="25" height="25" viewBox="0 0 33 33" fill="none" xmlns="http://www.w3.org/2000/svg">
<path d="M5.5 24.75C5.11042 24.75 4.78409 24.618 4.521 24.354C4.25792 24.09 4.12592 23.7637 4.125 23.375C4.12409 22.9863 4.25609 22.66 4.521 22.396C4.78592 22.132 5.11225 22 5.5 22H27.5C27.8896 22 28.2164 22.132 28.4804 22.396C28.7444 22.66 28.8759 22.9863 28.875 23.375C28.8741 23.7637 28.7421 24.0905 28.479 24.3554C28.2159 24.6203 27.8896 24.7518 27.5 24.75H5.5ZM5.5 17.875C5.11042 17.875 4.78409 17.743 4.521 17.479C4.25792 17.215 4.12592 16.8887 4.125 16.5C4.12409 16.1113 4.25609 15.785 4.521 15.521C4.78592 15.257 5.11225 15.125 5.5 15.125H27.5C27.8896 15.125 28.2164 15.257 28.4804 15.521C28.7444 15.785 28.8759 16.1113 28.875 16.5C28.8741 16.8887 28.7421 17.2155 28.479 17.4804C28.2159 17.7453 27.8896 17.8768 27.5 17.875H5.5ZM5.5 11C5.11042 11 4.78409 10.868 4.521 10.604C4.25792 10.34 4.12592 10.0137 4.125 9.625C4.12409 9.23633 4.25609 8.91 4.521 8.646C4.78592 8.382 5.11225 8.25 5.5 8.25H27.5C27.8896 8.25 28.2164 8.382 28.4804 8.646C28.7444 8.91 28.8759 9.23633 28.875 9.625C28.8741 10.0137 28.7421 10.3405 28.479 10.6054C28.2159 10.8703 27.8896 11.0018 27.5 11H5.5Z" fill="black"/>
</svg>
