<svg width="25" height="21" viewBox="0 0 25 21" fill="none" xmlns="http://www.w3.org/2000/svg">
<path d="M23.425 17.1L15.7857 10.2M9.21429 10.2L1.57504 17.1M1 4.45L10.3897 11.0228C11.15 11.555 11.5302 11.8211 11.9437 11.9242C12.309 12.0153 12.691 12.0153 13.0563 11.9242C13.4698 11.8211 13.85 11.555 14.6103 11.0228L24 4.45M6.52 19.4H18.48C20.4122 19.4 21.3783 19.4 22.1163 19.024C22.7654 18.6932 23.2932 18.1654 23.624 17.5163C24 16.7783 24 15.8122 24 13.88V6.52C24 4.58782 24 3.62173 23.624 2.88373C23.2932 2.23457 22.7654 1.70679 22.1163 1.37603C21.3783 1 20.4122 1 18.48 1H6.52C4.58782 1 3.62173 1 2.88373 1.37603C2.23457 1.70679 1.70679 2.23457 1.37603 2.88373C1 3.62173 1 4.58782 1 6.52V13.88C1 15.8122 1 16.7783 1.37603 17.5163C1.70679 18.1654 2.23457 18.6932 2.88373 19.024C3.62173 19.4 4.58782 19.4 6.52 19.4Z" stroke="#152528" stroke-width="1.5" stroke-linecap="round" stroke-linejoin="round"/>
</svg>
