<svg width="20" height="22" viewBox="0 0 20 22" fill="none" xmlns="http://www.w3.org/2000/svg">
<path d="M7.69935 6.85354C6.33109 6.85354 5.06311 7.2825 4.02197 8.01307V2.63213H1V19.3445H4.02197V18.5146C5.06311 19.245 6.33109 19.6741 7.69935 19.6741C11.2397 19.6741 14.1095 16.8042 14.1095 13.2639C14.1095 9.72364 11.2395 6.85354 7.69935 6.85354ZM7.41156 16.8743C5.48136 16.8743 3.91663 15.2566 3.91663 13.2612C3.91663 11.2658 5.48136 9.64809 7.41156 9.64809C9.34177 9.64809 10.9065 11.2658 10.9065 13.2612C10.9065 15.2566 9.34177 16.8743 7.41156 16.8743ZM17.7912 1.26562H19V20.7371H17.7912V1.26562Z" fill="white" stroke="white" stroke-miterlimit="10"/>
</svg>
