<svg width="31" height="29" viewBox="0 0 31 29" fill="none" xmlns="http://www.w3.org/2000/svg">
<path d="M28.4243 10.6087L6.7255 0.455821C5.86916 0.0569695 4.90221 -0.0850242 3.95648 0.049199C3.01075 0.183422 2.13227 0.58733 1.4408 1.20585C0.749345 1.82438 0.278556 2.62741 0.0926285 3.50548C-0.0932994 4.38354 0.0146811 5.29391 0.401848 6.11244L4.12165 13.9012C4.20605 14.0895 4.24952 14.2916 4.24952 14.4958C4.24952 14.7 4.20605 14.9022 4.12165 15.0905L0.401848 22.8792C0.0867503 23.5417 -0.0464563 24.2673 0.0143335 24.9901C0.0751234 25.713 0.327982 26.4102 0.749931 27.0183C1.17188 27.6264 1.74954 28.1263 2.43041 28.4724C3.11129 28.8184 3.87379 28.9998 4.64862 29C5.37434 28.9932 6.08925 28.8346 6.741 28.5359L28.4398 18.383C29.2095 18.0206 29.8565 17.4653 30.3085 16.7789C30.7606 16.0925 31 15.3021 31 14.4958C31 13.6896 30.7606 12.8992 30.3085 12.2128C29.8565 11.5264 29.2095 10.9711 28.4398 10.6087H28.4243ZM27.0449 15.7867L5.34608 25.9396C5.06115 26.0677 4.7412 26.1111 4.42913 26.0641C4.11706 26.0172 3.8278 25.8821 3.60012 25.6769C3.37244 25.4717 3.21724 25.2063 3.15532 24.9163C3.0934 24.6262 3.12773 24.3254 3.25369 24.0541L6.95799 16.2654C7.00594 16.1613 7.04735 16.0548 7.08198 15.9463H17.7609C18.172 15.9463 18.5662 15.7934 18.8569 15.5214C19.1475 15.2494 19.3108 14.8805 19.3108 14.4958C19.3108 14.1112 19.1475 13.7423 18.8569 13.4702C18.5662 13.1982 18.172 13.0454 17.7609 13.0454H7.08198C7.04735 12.9369 7.00594 12.8303 6.95799 12.7263L3.25369 4.9376C3.12773 4.66632 3.0934 4.36549 3.15532 4.07543C3.21724 3.78538 3.37244 3.51997 3.60012 3.3148C3.8278 3.10964 4.11706 2.97451 4.42913 2.92755C4.7412 2.88059 5.06115 2.92404 5.34608 3.05206L27.0449 13.205C27.2988 13.3267 27.5118 13.5116 27.6606 13.7394C27.8094 13.9671 27.8881 14.2289 27.8881 14.4958C27.8881 14.7628 27.8094 15.0246 27.6606 15.2523C27.5118 15.4801 27.2988 15.665 27.0449 15.7867Z" fill="#EC99B5"/>
</svg>
