<svg width="100%" height="100%" viewBox="0 0 51 51" fill="none" xmlns="http://www.w3.org/2000/svg">
<path fill-rule="evenodd" clip-rule="evenodd" d="M17.6227 27.0022C17.2243 26.6038 17.0005 26.0633 17.0005 25.4999C17.0005 24.9364 17.2243 24.396 17.6227 23.9975L29.6438 11.9764C29.8398 11.7734 30.0743 11.6115 30.3335 11.5002C30.5928 11.3888 30.8717 11.3302 31.1538 11.3277C31.436 11.3253 31.7158 11.379 31.9769 11.4859C32.2381 11.5927 32.4754 11.7505 32.6749 11.95C32.8744 12.1496 33.0322 12.3868 33.139 12.648C33.2459 12.9091 33.2996 13.1889 33.2972 13.4711C33.2947 13.7533 33.2361 14.0321 33.1248 14.2914C33.0134 14.5506 32.8515 14.7851 32.6485 14.9811L22.1298 25.4999L32.6485 36.0186C33.0356 36.4194 33.2498 36.9562 33.245 37.5134C33.2401 38.0705 33.0166 38.6035 32.6227 38.9975C32.2287 39.3915 31.6957 39.615 31.1385 39.6198C30.5813 39.6246 30.0446 39.4105 29.6438 39.0234L17.6227 27.0022Z" fill="currentColor"/>
</svg>
