<svg width="16" height="18" viewBox="0 0 16 18" fill="none" xmlns="http://www.w3.org/2000/svg">
<path d="M9.52835 6.00733C8.14281 5.14101 7.63898 3.94343 7.18554 3.07711C6.20307 1.29349 4.64119 0.758403 3.00374 1.16609C2.67625 0.580042 2.09684 0.299759 1.49224 0.681963C0.862456 1.06417 0.812073 1.72665 1.13956 2.3127C-0.0192487 3.58671 -0.37193 5.31937 0.585349 7.10298C1.06399 7.96931 1.76935 9.03948 1.79454 10.7467C1.81973 11.9697 0.862456 12.7851 2.29837 15.4095L13.0552 8.78468C11.6444 6.16021 10.5108 6.61886 9.52835 6.00733Z" fill="#FFCE31"/>
<path d="M8.77278 6.46614C7.5384 5.49789 7.00937 4.3258 6.53073 3.45947C5.54826 1.67585 4.16272 1.01337 2.82757 1.24269C2.50008 0.656645 1.99625 0.325402 1.49242 0.631165C0.988585 0.936928 0.988585 1.57393 1.31608 2.15998C0.434371 3.30659 0.283221 4.91185 1.2405 6.72094C1.71914 7.58727 2.39931 8.65744 2.57566 10.2882C2.67642 11.4348 1.94587 12.1228 3.38179 14.7727L11.9973 9.47281C10.5614 6.82286 9.65449 7.15411 8.77278 6.46614Z" fill="#FFE62E"/>
<path d="M13.0554 8.81059C13.5088 9.65144 11.4935 11.8427 8.52087 13.6518C5.54826 15.4864 2.77719 16.2763 2.29855 15.4355C1.8451 14.5946 3.86043 12.4033 6.83303 10.5942C9.83083 8.75963 12.6019 7.96975 13.0554 8.81059Z" fill="#7D888E"/>
<path d="M12.7783 9.06461C13.2066 9.82901 11.2668 11.842 8.47055 13.5746C5.67429 15.2818 3.07955 16.0717 2.6513 15.2818C2.22304 14.5174 4.16279 12.5044 6.95906 10.7718C9.75532 9.06461 12.3752 8.3002 12.7783 9.06461Z" fill="#C28200"/>
<path d="M2.97827 14.161C4.0867 14.0336 5.8753 13.3202 7.73948 12.1735C9.60365 11.0269 11.09 9.72744 11.7449 8.78467C10.6365 8.88659 8.8479 9.62552 6.95854 10.7721C5.09436 11.9187 3.60806 13.2182 2.97827 14.161Z" fill="#594640"/>
<path d="M4.51551 12.5302C4.33916 12.6831 4.18801 12.8105 4.03687 12.9634C4.43993 13.8552 5.34683 14.3903 6.30411 14.2119C5.54836 14.3648 4.79261 13.6259 4.51551 12.5302ZM7.48811 10.4663L7.11024 10.6956C7.11024 10.6956 7.11024 10.7211 7.13543 10.7211C7.31177 11.0524 7.43773 11.4091 7.5133 11.7658C7.58888 12.148 7.58888 12.5302 7.48811 12.8869C7.41254 13.2437 7.211 13.6004 6.95909 13.8297C6.78275 14.0335 6.58121 14.1609 6.3293 14.2119C7.46292 13.9826 8.24386 12.836 8.01713 11.6129C7.94156 11.1543 7.74003 10.7721 7.48811 10.4663Z" fill="#F2B200"/>
<path d="M7.48811 11.7655C7.41253 11.3833 7.28657 11.0266 7.11023 10.7208C7.11023 10.7208 7.11023 10.6953 7.08504 10.6953C7.08504 10.6953 7.05985 10.6953 7.05985 10.7208C7.03466 10.7463 7.00947 10.7463 6.95908 10.7718L6.93389 10.7972C6.027 11.3578 5.19567 11.9693 4.5155 12.5299C4.79261 13.6255 5.54836 14.339 6.3041 14.2116C6.55602 14.1606 6.75755 14.0332 6.93389 13.8294C7.18581 13.6001 7.38734 13.2433 7.46291 12.8866C7.56368 12.5299 7.56368 12.1477 7.48811 11.7655Z" fill="#FFCE31"/>
<path d="M13.4675 14.0172L11.1954 12.8871L12.1757 15.289L13.4675 14.0172ZM10.9945 15.8565L10.0182 13.8305L9.07482 15.8238L10.9945 15.8565ZM14.2205 12.6339L12.1595 11.6298L14.2622 10.9663L14.2205 12.6339Z" fill="#42ADE2"/>
</svg>
