<svg width="37" height="37" viewBox="0 0 37 37" fill="none" xmlns="http://www.w3.org/2000/svg">
<rect width="37" height="37" rx="5" fill="#F8F0E2"/>
<path d="M25.5731 26.1901L26.205 25.5604L19.0053 18.3874C19.2912 18.0426 19.5133 17.6528 19.6716 17.2181C19.8293 16.7833 19.9081 16.3261 19.9081 15.8464C19.9081 14.7221 19.5133 13.7702 18.7236 12.9907C17.9334 12.2111 16.974 11.8214 15.8455 11.8214H15.6199L18.3959 14.5872L14.5591 18.3874L11.783 15.6215V15.8689C11.783 16.9932 12.1778 17.9451 12.9675 18.7246C13.7577 19.5042 14.7171 19.8939 15.8455 19.8939C16.327 19.8939 16.7823 19.8151 17.2115 19.6574C17.64 19.5003 18.0273 19.2793 18.3734 18.9945L25.5731 26.1901ZM24.3092 27.4718L18.08 21.2656C17.7339 21.4005 17.3767 21.5054 17.0083 21.5804C16.6394 21.6553 16.2593 21.6928 15.8681 21.6928C14.2281 21.6928 12.8402 21.1268 11.7045 19.9947C10.5682 18.8632 10 17.4804 10 15.8464C10 15.2168 10.0942 14.6097 10.2826 14.025C10.4704 13.4404 10.7448 12.9007 11.1059 12.406L14.5591 15.8464L15.8455 14.5872L12.3924 11.1243C12.904 10.7495 13.4532 10.4683 14.04 10.2806C14.6268 10.0935 15.2286 10 15.8455 10C17.4856 10 18.8738 10.5658 20.0101 11.6973C21.1458 12.8294 21.7137 14.2124 21.7137 15.8464C21.7137 16.2362 21.6761 16.622 21.6008 17.004C21.5256 17.3866 21.4127 17.7502 21.2623 18.095L27.4689 24.2787C27.815 24.6235 27.992 25.0469 27.9998 25.5488C28.007 26.0512 27.8376 26.4749 27.4915 26.8197L26.8821 27.4493C26.5361 27.8091 26.1108 27.9926 25.6065 27.9998C25.1027 28.0075 24.6703 27.8316 24.3092 27.4718Z" fill="#97845D"/>
</svg>
