<svg width="25" height="25" viewBox="0 0 29 29" fill="none" xmlns="http://www.w3.org/2000/svg">
<path d="M24.0466 15.2965C23.8529 15.076 23.7461 14.7926 23.7461 14.499C23.7461 14.2055 23.8529 13.922 24.0466 13.7015L25.5933 11.9615C25.7637 11.7714 25.8696 11.5322 25.8956 11.2782C25.9217 11.0242 25.8666 10.7685 25.7383 10.5478L23.3216 6.36696C23.1947 6.14646 23.0013 5.97168 22.7691 5.86753C22.537 5.76339 22.2779 5.73519 22.0287 5.78696L19.7571 6.24612C19.468 6.30585 19.1671 6.25771 18.9111 6.11079C18.6551 5.96387 18.4617 5.72833 18.3675 5.44862L17.6304 3.23737C17.5493 2.99737 17.3949 2.78892 17.1889 2.64147C16.9829 2.49403 16.7358 2.41505 16.4825 2.41571H11.6491C11.3856 2.40195 11.1249 2.47483 10.9067 2.62319C10.6885 2.77156 10.5249 2.98727 10.4408 3.23737L9.76414 5.44862C9.6699 5.72833 9.47653 5.96387 9.22053 6.11079C8.96453 6.25771 8.66361 6.30585 8.37456 6.24612L6.04248 5.78696C5.80631 5.75358 5.56555 5.79085 5.35052 5.89406C5.1355 5.99727 4.95582 6.16181 4.83414 6.36696L2.41748 10.5478C2.28596 10.7661 2.22683 11.0204 2.24853 11.2743C2.27023 11.5282 2.37166 11.7687 2.53831 11.9615L4.07289 13.7015C4.26661 13.922 4.37345 14.2055 4.37345 14.499C4.37345 14.7926 4.26661 15.076 4.07289 15.2965L2.53831 17.0365C2.37166 17.2293 2.27023 17.4699 2.24853 17.7238C2.22683 17.9777 2.28596 18.232 2.41748 18.4503L4.83414 22.6311C4.96114 22.8516 5.1545 23.0264 5.38666 23.1305C5.61882 23.2347 5.87793 23.2629 6.12706 23.2111L8.39873 22.752C8.68778 22.6922 8.9887 22.7404 9.2447 22.8873C9.50069 23.0342 9.69406 23.2697 9.78831 23.5495L10.5254 25.7607C10.6095 26.0108 10.7731 26.2265 10.9913 26.3749C11.2095 26.5233 11.4702 26.5961 11.7337 26.5824H16.5671C16.8204 26.583 17.0675 26.504 17.2735 26.3566C17.4795 26.2092 17.6339 26.0007 17.715 25.7607L18.4521 23.5495C18.5463 23.2697 18.7397 23.0342 18.9957 22.8873C19.2517 22.7404 19.5526 22.6922 19.8416 22.752L22.1133 23.2111C22.3624 23.2629 22.6216 23.2347 22.8537 23.1305C23.0859 23.0264 23.2792 22.8516 23.4062 22.6311L25.8229 18.4503C25.9512 18.2295 26.0063 17.9738 25.9802 17.7198C25.9542 17.4659 25.8483 17.2266 25.6779 17.0365L24.0466 15.2965ZM22.2462 16.9157L23.2129 18.0032L21.6662 20.6857L20.2404 20.3957C19.3701 20.2178 18.4648 20.3656 17.6964 20.8111C16.9279 21.2566 16.3497 21.9688 16.0716 22.8124L15.6125 24.1657H12.5191L12.0841 22.7882C11.8061 21.9446 11.2279 21.2325 10.4594 20.787C9.69095 20.3415 8.78566 20.1936 7.91539 20.3715L6.48956 20.6615L4.91873 17.9911L5.88539 16.9036C6.47984 16.239 6.80848 15.3786 6.80848 14.487C6.80848 13.5953 6.47984 12.7349 5.88539 12.0703L4.91873 10.9828L6.46539 8.32446L7.89123 8.61446C8.76149 8.79235 9.66679 8.64452 10.4353 8.19903C11.2037 7.75354 11.7819 7.0414 12.06 6.19779L12.5191 4.83237H15.6125L16.0716 6.20987C16.3497 7.05348 16.9279 7.76562 17.6964 8.21111C18.4648 8.6566 19.3701 8.80443 20.2404 8.62654L21.6662 8.33654L23.2129 11.019L22.2462 12.1065C21.6585 12.7696 21.3339 13.625 21.3339 14.5111C21.3339 15.3972 21.6585 16.2526 22.2462 16.9157ZM14.0658 9.66571C13.1099 9.66571 12.1754 9.94918 11.3806 10.4803C10.5857 11.0114 9.96622 11.7662 9.60039 12.6494C9.23457 13.5326 9.13885 14.5044 9.32535 15.442C9.51184 16.3795 9.97217 17.2408 10.6481 17.9167C11.3241 18.5927 12.1853 19.053 13.1229 19.2395C14.0604 19.426 15.0323 19.3303 15.9154 18.9645C16.7986 18.5986 17.5535 17.9791 18.0846 17.1843C18.6157 16.3895 18.8991 15.455 18.8991 14.499C18.8991 13.2172 18.3899 11.9878 17.4835 11.0814C16.5771 10.1749 15.3477 9.66571 14.0658 9.66571ZM14.0658 16.9157C13.5878 16.9157 13.1206 16.774 12.7232 16.5084C12.3258 16.2429 12.016 15.8654 11.8331 15.4239C11.6502 14.9823 11.6023 14.4964 11.6956 14.0276C11.7888 13.5588 12.019 13.1282 12.357 12.7902C12.6949 12.4522 13.1256 12.2221 13.5943 12.1288C14.0631 12.0356 14.549 12.0834 14.9906 12.2663C15.4322 12.4492 15.8096 12.759 16.0752 13.1564C16.3407 13.5538 16.4825 14.0211 16.4825 14.499C16.4825 15.14 16.2279 15.7547 15.7747 16.2079C15.3214 16.6611 14.7068 16.9157 14.0658 16.9157Z" fill="black"/>
</svg>
