<svg width="37" height="37" viewBox="0 0 37 37" fill="none" xmlns="http://www.w3.org/2000/svg">
<rect width="37" height="37" rx="5" fill="#E8F9E1"/>
<g clip-path="url(#clip0_3829_11088)">
<path d="M28.0832 11.4757L26.4828 11.4756H24.0103H23.2915H22.8123H20.1003H18.4998H16.8994H15.2655H13.7082H12.1509H10.5169H8.9165V25.2085C8.9165 26.2627 9.779 27.1252 10.8332 27.1252H26.1665C27.2207 27.1252 28.0832 26.2627 28.0832 25.2085V11.4757ZM17.5415 25.2085H10.8332V19.4585H17.5415V25.2085ZM26.1665 25.2085H19.4582V23.2918H26.1665V25.2085ZM26.1665 21.3752H19.4582V19.4585H26.1665V21.3752ZM26.1665 17.5418H10.8332V13.3492H26.1665V17.5418Z" fill="#759962"/>
</g>
<defs>
<clipPath id="clip0_3829_11088">
<rect width="23" height="23" fill="white" transform="translate(7 7)"/>
</clipPath>
</defs>
</svg>
