<svg width="100%" height="100%" viewBox="0 0 20 20" fill="none" xmlns="http://www.w3.org/2000/svg">
<path d="M15.8854 10.6795L19.0625 13.5826V17.4535C19.0625 17.9668 18.8393 18.4591 18.4421 18.8221C18.0449 19.1851 17.5062 19.389 16.9444 19.389H2.11806C1.55631 19.389 1.01758 19.1851 0.620364 18.8221C0.223152 18.4591 0 17.9668 0 17.4535V13.5826L3.17708 10.6795H4.05608L6.17413 12.6149H4.00313L2.11806 14.5504H16.9444L15.07 12.6149H13.0472L15.1653 10.6795H15.8854ZM16.9444 17.4535V16.4858H2.11806V17.4535H16.9444ZM8.83229 12.6149L3.5901 7.84403C3.49193 7.7545 3.41404 7.64816 3.3609 7.53109C3.30775 7.41402 3.2804 7.28853 3.2804 7.16179C3.2804 7.03504 3.30775 6.90955 3.3609 6.79248C3.41404 6.67541 3.49193 6.56907 3.5901 6.47954L10.3361 0.315142C10.4331 0.225047 10.5489 0.153668 10.6766 0.105241C10.8043 0.0568135 10.9414 0.0323246 11.0797 0.0332272C11.218 0.0341298 11.3546 0.0604054 11.4816 0.110495C11.6085 0.160585 11.7232 0.233468 11.8188 0.324819L17.0609 5.11505C17.474 5.49246 17.474 6.10213 17.0609 6.47954L10.3255 12.6149C10.2303 12.709 10.1149 12.7841 9.98637 12.8355C9.85788 12.8868 9.71915 12.9134 9.57891 12.9134C9.43866 12.9134 9.29993 12.8868 9.17144 12.8355C9.04295 12.7841 8.92748 12.709 8.83229 12.6149ZM11.0774 2.36672L5.82465 7.15695L9.5842 10.5827L14.8264 5.79246L11.0774 2.36672Z" fill="currentColor"/>
</svg>
