<svg width="32" height="33" viewBox="0 0 32 33" fill="none" xmlns="http://www.w3.org/2000/svg">
<path d="M23.5789 0.722656C24.8677 0.722586 26.1078 1.20742 27.0455 2.07796C27.9832 2.9485 28.5476 4.13893 28.6232 5.40569L28.6316 5.69756V22.2806H29.8947C30.9844 22.2806 31.8821 23.0964 31.9899 24.1412L32 24.3534V27.2554C32.0001 28.5244 31.5077 29.7454 30.6235 30.6687C29.7394 31.5919 28.5303 32.1476 27.2438 32.2221L26.9474 32.2303H10.1053C8.81649 32.2304 7.5764 31.7456 6.63872 30.875C5.70104 30.0045 5.13666 28.8141 5.06105 27.5473L5.05263 27.2554V10.6725H2.10526C1.58407 10.6727 1.08132 10.4826 0.694289 10.1389C0.307262 9.79516 0.0634754 9.32232 0.0101053 8.81184L7.84917e-09 8.59958V5.69756C-7.1784e-05 4.42861 0.492337 3.20759 1.37648 2.28434C2.26062 1.36109 3.46965 0.805393 4.75621 0.730948L5.05263 0.722656H23.5789ZM23.5789 4.03926H8.42105V27.2554C8.42105 27.6953 8.5985 28.1171 8.91435 28.428C9.2302 28.739 9.65858 28.9137 10.1053 28.9137C10.5519 28.9137 10.9803 28.739 11.2962 28.428C11.612 28.1171 11.7895 27.6953 11.7895 27.2554V24.3534C11.7895 23.2092 12.7326 22.2806 13.8947 22.2806H25.2632V5.69756C25.2632 5.25775 25.0857 4.83595 24.7699 4.52496C24.454 4.21397 24.0256 4.03926 23.5789 4.03926ZM28.6316 25.5971H15.1579V27.2554C15.1579 27.8359 15.0568 28.3947 14.8716 28.9137H26.9474C27.394 28.9137 27.8224 28.739 28.1383 28.428C28.4541 28.1171 28.6316 27.6953 28.6316 27.2554V25.5971ZM16.8421 15.6474C17.2888 15.6474 17.7172 15.8221 18.033 16.1331C18.3489 16.444 18.5263 16.8658 18.5263 17.3057C18.5263 17.7455 18.3489 18.1673 18.033 18.4782C17.7172 18.7892 17.2888 18.964 16.8421 18.964H13.4737C13.027 18.964 12.5986 18.7892 12.2828 18.4782C11.9669 18.1673 11.7895 17.7455 11.7895 17.3057C11.7895 16.8658 11.9669 16.444 12.2828 16.1331C12.5986 15.8221 13.027 15.6474 13.4737 15.6474H16.8421ZM20.2105 9.01415C20.6572 9.01415 21.0856 9.18887 21.4014 9.49986C21.7173 9.81085 21.8947 10.2326 21.8947 10.6725C21.8947 11.1123 21.7173 11.5341 21.4014 11.845C21.0856 12.156 20.6572 12.3308 20.2105 12.3308H13.4737C13.027 12.3308 12.5986 12.156 12.2828 11.845C11.9669 11.5341 11.7895 11.1123 11.7895 10.6725C11.7895 10.2326 11.9669 9.81085 12.2828 9.49986C12.5986 9.18887 13.027 9.01415 13.4737 9.01415H20.2105ZM5.05263 4.03926C4.64011 4.03931 4.24196 4.18843 3.93369 4.45833C3.62542 4.72824 3.42848 5.10015 3.38021 5.50353L3.36842 5.69756V7.35585H5.05263V4.03926Z" fill="black"/>
</svg>
