<svg width="100%" height="100%" viewBox="0 0 32 34" fill="none" xmlns="http://www.w3.org/2000/svg">
<path d="M27.8519 4.81545H24.0622L22.2222 1.6576C22.0596 1.37917 21.8393 1.15098 21.5808 0.993316C21.3223 0.835654 21.0338 0.753412 20.7407 0.753908H11.2593C10.9662 0.753412 10.6777 0.835654 10.4192 0.993316C10.1607 1.15098 9.9404 1.37917 9.77778 1.6576L7.9363 4.81545H4.14815C3.04799 4.81545 1.99289 5.31468 1.21496 6.20331C0.437036 7.09194 0 8.29719 0 9.55391V28.5078C0 29.7645 0.437036 30.9697 1.21496 31.8584C1.99289 32.747 3.04799 33.2462 4.14815 33.2462H27.8519C28.3966 33.2462 28.936 33.1236 29.4393 32.8855C29.9426 32.6474 30.3998 32.2984 30.785 31.8584C31.1702 31.4183 31.4758 30.896 31.6842 30.3211C31.8927 29.7462 32 29.13 32 28.5078V9.55391C32 8.93164 31.8927 8.31547 31.6842 7.74058C31.4758 7.16568 31.1702 6.64332 30.785 6.20331C30.3998 5.7633 29.9426 5.41427 29.4393 5.17614C28.936 4.93801 28.3966 4.81545 27.8519 4.81545ZM28.4444 28.5078C28.4444 28.6873 28.382 28.8595 28.2709 28.9864C28.1597 29.1134 28.009 29.1847 27.8519 29.1847H4.14815C3.99098 29.1847 3.84025 29.1134 3.72912 28.9864C3.61799 28.8595 3.55556 28.6873 3.55556 28.5078V9.55391C3.55556 9.37438 3.61799 9.2022 3.72912 9.07525C3.84025 8.9483 3.99098 8.87698 4.14815 8.87698H8.88889C9.1819 8.87748 9.47047 8.79524 9.72894 8.63758C9.98741 8.47991 10.2078 8.25172 10.3704 7.97329L12.2104 4.81545H19.7881L21.6296 7.97329C21.7922 8.25172 22.0126 8.47991 22.2711 8.63758C22.5295 8.79524 22.8181 8.87748 23.1111 8.87698H27.8519C28.009 8.87698 28.1597 8.9483 28.2709 9.07525C28.382 9.2022 28.4444 9.37438 28.4444 9.55391V28.5078ZM16 10.2308C14.5936 10.2308 13.2187 10.7072 12.0493 11.5998C10.8799 12.4924 9.96841 13.761 9.43019 15.2453C8.89197 16.7296 8.75114 18.3629 9.02553 19.9386C9.29991 21.5144 9.97718 22.9618 10.9717 24.0978C11.9662 25.2338 13.2333 26.0075 14.6127 26.3209C15.9921 26.6343 17.4219 26.4735 18.7213 25.8587C20.0207 25.2438 21.1313 24.2027 21.9127 22.8668C22.6941 21.531 23.1111 19.9605 23.1111 18.3539C23.1091 16.2002 22.3593 14.1354 21.0261 12.6125C19.693 11.0896 17.8854 10.2331 16 10.2308ZM16 22.4154C15.2968 22.4154 14.6093 22.1772 14.0246 21.731C13.4399 21.2847 12.9842 20.6503 12.7151 19.9082C12.446 19.166 12.3756 18.3494 12.5128 17.5615C12.65 16.7737 12.9886 16.05 13.4858 15.482C13.9831 14.9139 14.6166 14.5271 15.3063 14.3704C15.9961 14.2137 16.711 14.2941 17.3607 14.6015C18.0103 14.9089 18.5656 15.4295 18.9563 16.0974C19.347 16.7654 19.5556 17.5506 19.5556 18.3539C19.5556 19.4311 19.181 20.4642 18.5142 21.2258C17.8474 21.9875 16.943 22.4154 16 22.4154Z" fill="currentColor"/>
</svg>
