<svg width="26" height="21" viewBox="0 0 26 21" fill="none" xmlns="http://www.w3.org/2000/svg">
<path d="M14.4729 0.538866C14.8212 0.19383 15.2935 0 15.786 0C16.2784 0 16.7507 0.19383 17.099 0.538866L25.4562 8.82101C25.8044 9.16615 26 9.63419 26 10.1222C26 10.6102 25.8044 11.0783 25.4562 11.4234L17.099 19.7056C16.7487 20.0408 16.2796 20.2263 15.7926 20.2222C15.3057 20.218 14.8399 20.0244 14.4956 19.6832C14.1512 19.3419 13.9559 18.8803 13.9517 18.3977C13.9474 17.9152 14.1346 17.4503 14.4729 17.1031L19.5003 11.9627H1.85717C1.36462 11.9627 0.89224 11.7688 0.543953 11.4236C0.195666 11.0785 0 10.6103 0 10.1222C0 9.6341 0.195666 9.16597 0.543953 8.82081C0.89224 8.47565 1.36462 8.28175 1.85717 8.28175H19.5003L14.4729 3.1413C14.1248 2.79616 13.9292 2.32811 13.9292 1.84008C13.9292 1.35205 14.1248 0.884006 14.4729 0.538866Z" fill="black"/>
</svg>
