<svg width="13" height="13" viewBox="0 0 13 13" fill="none" xmlns="http://www.w3.org/2000/svg">
<path d="M8.93882 6.89907C9.00423 6.89907 9.06695 6.86987 9.1132 6.81789C9.15944 6.76591 9.18542 6.69541 9.18542 6.6219C9.18542 6.54839 9.15944 6.47789 9.1132 6.42591C9.06695 6.37393 9.00423 6.34473 8.93882 6.34473C8.87342 6.34473 8.8107 6.37393 8.76445 6.42591C8.71821 6.47789 8.69223 6.54839 8.69223 6.6219C8.69223 6.69541 8.71821 6.76591 8.76445 6.81789C8.8107 6.86987 8.87342 6.89907 8.93882 6.89907ZM6.47284 6.89907C6.53824 6.89907 6.60096 6.86987 6.64721 6.81789C6.69346 6.76591 6.71944 6.69541 6.71944 6.6219C6.71944 6.54839 6.69346 6.47789 6.64721 6.42591C6.60096 6.37393 6.53824 6.34473 6.47284 6.34473C6.40744 6.34473 6.34471 6.37393 6.29847 6.42591C6.25222 6.47789 6.22624 6.54839 6.22624 6.6219C6.22624 6.69541 6.25222 6.76591 6.29847 6.81789C6.34471 6.86987 6.40744 6.89907 6.47284 6.89907ZM4.00685 6.89907C4.07225 6.89907 4.13498 6.86987 4.18122 6.81789C4.22747 6.76591 4.25345 6.69541 4.25345 6.6219C4.25345 6.54839 4.22747 6.47789 4.18122 6.42591C4.13498 6.37393 4.07225 6.34473 4.00685 6.34473C3.94145 6.34473 3.87873 6.37393 3.83248 6.42591C3.78623 6.47789 3.76025 6.54839 3.76025 6.6219C3.76025 6.69541 3.78623 6.76591 3.83248 6.81789C3.87873 6.86987 3.94145 6.89907 4.00685 6.89907Z" fill="black" stroke="black" stroke-width="1.5" stroke-linecap="round" stroke-linejoin="round"/>
<path d="M6.47297 12.1649C9.19689 12.1649 11.4049 9.68313 11.4049 6.62152C11.4049 3.5599 9.19689 1.07812 6.47297 1.07812C3.74905 1.07812 1.54102 3.5599 1.54102 6.62152C1.54102 7.63097 1.7812 8.57833 2.20091 9.39321L1.78761 11.8877L4.00699 11.4232C4.75647 11.9104 5.60719 12.1663 6.47297 12.1649Z" stroke="black" stroke-width="1.5" stroke-linecap="round" stroke-linejoin="round"/>
</svg>
