<svg width="3" height="13" viewBox="0 0 3 13" fill="none" xmlns="http://www.w3.org/2000/svg">
<path d="M1.91211 5.525C1.71433 5.525 1.52099 5.58218 1.35654 5.68932C1.19209 5.79645 1.06392 5.94873 0.988231 6.12688C0.912543 6.30504 0.892739 6.50108 0.931324 6.69021C0.96991 6.87934 1.06515 7.05307 1.205 7.18943C1.34486 7.32578 1.52304 7.41864 1.71702 7.45627C1.911 7.49389 2.11207 7.47458 2.29479 7.40078C2.47752 7.32699 2.6337 7.20202 2.74358 7.04168C2.85346 6.88134 2.91211 6.69284 2.91211 6.5C2.91211 6.24141 2.80675 5.99342 2.61922 5.81057C2.43168 5.62772 2.17733 5.525 1.91211 5.525ZM2.91211 0.974999C2.91211 1.16784 2.85346 1.35634 2.74358 1.51668C2.6337 1.67702 2.47752 1.80199 2.29479 1.87578C2.11207 1.94958 1.911 1.96889 1.71702 1.93127C1.52304 1.89365 1.34486 1.80079 1.205 1.66443C1.06515 1.52807 0.969909 1.35434 0.931324 1.16521C0.892739 0.976082 0.912543 0.780042 0.988231 0.601884C1.06392 0.423726 1.19209 0.271451 1.35654 0.164317C1.52099 0.0571824 1.71433 7.99418e-08 1.91211 6.67416e-08C2.17733 4.90406e-08 2.43168 0.102723 2.61922 0.285571C2.80675 0.468419 2.91211 0.716413 2.91211 0.974999ZM2.91211 12.025C2.91211 12.2178 2.85346 12.4063 2.74358 12.5667C2.6337 12.727 2.47752 12.852 2.29479 12.9258C2.11207 12.9996 1.911 13.0189 1.71702 12.9813C1.52304 12.9436 1.34486 12.8508 1.205 12.7144C1.06515 12.5781 0.96991 12.4043 0.931325 12.2152C0.89274 12.0261 0.912544 11.83 0.988231 11.6519C1.06392 11.4737 1.19209 11.3215 1.35654 11.2143C1.52099 11.1072 1.71433 11.05 1.91211 11.05C2.17733 11.05 2.43168 11.1527 2.61922 11.3356C2.80675 11.5184 2.91211 11.7664 2.91211 12.025Z" fill="#B4B1B1"/>
</svg>
