<svg width="19" height="17" viewBox="0 0 19 17" fill="none" xmlns="http://www.w3.org/2000/svg">
<path d="M9.18668 1.17786C10.0725 1.17838 10.9386 1.42467 11.6779 1.88623C12.4171 2.34779 12.9969 3.00432 13.3454 3.77448C13.9354 3.83738 14.5065 4.00957 15.0261 4.28121C15.5457 4.55285 16.0037 4.91862 16.3738 5.35765C16.744 5.79667 17.0191 6.30035 17.1834 6.83991C17.3478 7.37948 17.3981 7.94438 17.3316 8.50235C17.2651 9.06032 17.083 9.60043 16.7958 10.0919C16.5085 10.5833 16.1218 11.0164 15.6576 11.3665C15.1934 11.7165 14.6608 11.9767 14.0902 12.1321C13.5197 12.2875 12.9224 12.3351 12.3324 12.2722C11.903 12.9905 11.2132 13.5375 10.3904 13.812C9.56766 14.0866 8.66761 14.0701 7.85667 13.7657L4.60922 15.608V13.0955C4.27748 13.023 3.96734 12.8806 3.70193 12.6788C3.43653 12.4771 3.22271 12.2213 3.07643 11.9305C2.93015 11.6397 2.85519 11.3215 2.85713 10.9995C2.85907 10.6775 2.93787 10.36 3.08764 10.0708C2.27832 9.63051 1.65375 8.94035 1.31871 8.11615C0.983673 7.29194 0.958556 6.38384 1.24757 5.5442C1.53659 4.70455 2.12216 3.98446 2.90603 3.50473C3.6899 3.025 4.62438 2.81483 5.55269 2.90947C5.97301 2.37216 6.52075 1.93559 7.15188 1.63485C7.78302 1.33411 8.47996 1.17759 9.18668 1.17786Z" stroke="#6BBEEC" stroke-width="2" stroke-linecap="round" stroke-linejoin="round"/>
</svg>
