<svg width="11" height="11" viewBox="0 0 11 11" fill="none" xmlns="http://www.w3.org/2000/svg">
<path d="M7.35106 4.23629L6.94554 4.16053C6.93576 4.2267 6.93891 4.29448 6.95478 4.35914C6.97065 4.42381 6.99887 4.48381 7.03746 4.53499C7.07605 4.58616 7.12409 4.62727 7.17825 4.65546C7.23241 4.68365 7.29138 4.69825 7.35106 4.69823V4.23629ZM1.32311 4.23629V3.77434C1.2141 3.77434 1.10956 3.82301 1.03249 3.90964C0.955411 3.99627 0.912109 4.11377 0.912109 4.23629H1.32311ZM2.4191 10.8576H8.64433V9.93366H2.4191V10.8576ZM9.30192 3.77434H7.35106V4.69823H9.30192V3.77434ZM7.75658 4.31204L8.19826 1.33401L7.38723 1.18188L6.94554 4.16053L7.75658 4.31204ZM7.25242 0.0787409H7.13515V1.00264H7.25187L7.25242 0.0787409ZM5.42485 1.10735L4.04665 3.43126L4.73054 3.94372L6.10875 1.6198L5.42485 1.10735ZM3.47673 3.77434H1.32311V4.69823H3.47673V3.77434ZM0.912109 4.23629V9.16374H1.7341V4.23629H0.912109ZM10.1223 9.49635L10.7799 5.80075L9.97432 5.61905L9.31672 9.31465L10.1223 9.49635ZM4.04665 3.43126C3.98412 3.53676 3.89938 3.62266 3.79996 3.68251C3.70054 3.74236 3.58951 3.77369 3.47673 3.77372V4.69762C3.98089 4.69762 4.45107 4.41491 4.73054 3.94372L4.04665 3.43126ZM8.19826 1.33401C8.2211 1.17964 8.21375 1.02091 8.17673 0.870056C8.13972 0.719197 8.07392 0.579206 7.98391 0.459812C7.89391 0.340419 7.78185 0.244485 7.65553 0.178678C7.52921 0.11287 7.39165 0.0787682 7.25242 0.0787409L7.25187 1.00264C7.27174 1.00269 7.2919 1.0076 7.30991 1.01703C7.32791 1.02645 7.34388 1.04016 7.35671 1.05721C7.36953 1.07426 7.3789 1.09424 7.38417 1.11577C7.38944 1.1373 7.39049 1.15985 7.38723 1.18188L8.19826 1.33401ZM9.30192 4.69762C9.73484 4.69762 10.0582 5.14232 9.97377 5.61844L10.7799 5.80014C10.8235 5.55444 10.8181 5.30031 10.764 5.05725C10.7099 4.8142 10.6085 4.58765 10.4672 4.39394C10.3258 4.20023 10.148 4.04418 9.94646 3.93703C9.74496 3.82989 9.52483 3.77432 9.30192 3.77434V4.69762ZM8.64433 10.8576C8.99269 10.8576 9.33032 10.7214 9.59978 10.4733C9.86923 10.2251 10.0539 9.87966 10.1223 9.49573L9.31672 9.31403C9.28566 9.48871 9.20167 9.64588 9.07906 9.75875C8.95645 9.87163 8.80282 9.93384 8.64433 9.93366V10.8576ZM7.13515 0.0787409C6.79685 0.0787685 6.46379 0.172052 6.16554 0.351488C5.86728 0.530925 5.61304 0.790348 5.4254 1.10673L6.10875 1.6198C6.22139 1.42989 6.37402 1.27356 6.55307 1.1659C6.73213 1.05823 6.93208 1.00255 7.13515 1.00264V0.0787409ZM2.4191 9.93366C2.04098 9.93366 1.7341 9.58874 1.7341 9.16374H0.912109C0.912109 9.61297 1.07088 10.0438 1.3535 10.3615C1.63611 10.6791 2.01942 10.8576 2.4191 10.8576V9.93366Z" fill="black"/>
<path d="M3.51514 4.23633V10.3957" stroke="black" stroke-width="1.5"/>
</svg>
