<svg width="17" height="16" viewBox="0 0 17 16" fill="none" xmlns="http://www.w3.org/2000/svg">
<path d="M11.9596 1.53826C12.4256 1.12104 13.0479 0.879454 13.7002 0.862513C14.3525 0.845572 14.986 1.05454 15.4721 1.44704L15.5943 1.55255L16.1936 2.10499C16.65 2.52571 16.9121 3.08924 16.9267 3.68136C16.9414 4.27348 16.7076 4.84989 16.2728 5.29376L16.1558 5.40534L6.45124 14.0915C6.31403 14.2142 6.14845 14.3077 5.96666 14.365L5.82746 14.401L2.00283 15.1858C1.86882 15.2135 1.72963 15.2116 1.59699 15.1803C1.46435 15.1489 1.34214 15.089 1.24065 15.0057C1.13917 14.9223 1.06137 14.8179 1.01382 14.7012C0.966273 14.5845 0.950361 14.459 0.967426 14.3352L0.985566 14.2474L1.90504 10.7848C1.95045 10.6149 2.03716 10.4563 2.1588 10.3205L2.255 10.2236L11.9596 1.53826ZM11.3224 4.28617L3.5411 11.2502L2.9717 13.3939L5.33999 12.9076L13.1213 5.94348L11.3224 4.28617ZM14.3704 2.64791C14.2244 2.51337 14.0291 2.43213 13.821 2.41942C13.613 2.40671 13.4065 2.46341 13.2404 2.57888L13.1591 2.64314L12.5463 3.19082L14.3452 4.84813L14.9571 4.30046C15.1062 4.16707 15.1968 3.98917 15.2121 3.80015C15.2273 3.61112 15.1661 3.42395 15.04 3.27376L14.9697 3.20034L14.3704 2.64791Z" fill="#E626B0"/>
</svg>
