<svg width="20" height="19" viewBox="0 0 20 19" fill="none" xmlns="http://www.w3.org/2000/svg">
<path d="M12.8375 7.69143L12.0864 7.56843C12.0683 7.67587 12.0741 7.7859 12.1035 7.89089C12.1329 7.99588 12.1852 8.09331 12.2567 8.17639C12.3281 8.25947 12.4171 8.32621 12.5174 8.37198C12.6177 8.41775 12.7269 8.44145 12.8375 8.44143V7.69143ZM1.6733 7.69143V6.94143C1.47142 6.94143 1.27781 7.02045 1.13506 7.1611C0.992306 7.30175 0.912109 7.49252 0.912109 7.69143H1.6733ZM3.70315 18.4414H15.2327V16.9414H3.70315V18.4414ZM16.4506 6.94143H12.8375V8.44143H16.4506V6.94143ZM13.5885 7.81443L14.4066 2.97943L12.9045 2.73243L12.0864 7.56843L13.5885 7.81443ZM12.6548 0.94143H12.4376V2.44143H12.6538L12.6548 0.94143ZM9.27002 2.61143L6.71748 6.38443L7.98411 7.21643L10.5366 3.44343L9.27002 2.61143ZM5.66196 6.94143H1.6733V8.44143H5.66196V6.94143ZM0.912109 7.69143V15.6914H2.4345V7.69143H0.912109ZM17.97 16.2314L19.1879 10.2314L17.6959 9.93643L16.478 15.9364L17.97 16.2314ZM6.71748 6.38443C6.60168 6.55571 6.44474 6.69518 6.26061 6.79234C6.07648 6.88951 5.87084 6.94038 5.66196 6.94043V8.44043C6.59569 8.44043 7.4665 7.98143 7.98411 7.21643L6.71748 6.38443ZM14.4066 2.97943C14.4488 2.7288 14.4352 2.4711 14.3667 2.22617C14.2981 1.98124 14.1763 1.75396 14.0096 1.56012C13.8429 1.36628 13.6353 1.21052 13.4014 1.10368C13.1674 0.996841 12.9127 0.941474 12.6548 0.94143L12.6538 2.44143C12.6906 2.44152 12.7279 2.44949 12.7613 2.46479C12.7946 2.48009 12.8242 2.50235 12.8479 2.53003C12.8717 2.55771 12.889 2.59015 12.8988 2.6251C12.9086 2.66005 12.9105 2.69667 12.9045 2.73243L14.4066 2.97943ZM16.4506 8.44043C17.2524 8.44043 17.8512 9.16243 17.6949 9.93543L19.1879 10.2304C19.2686 9.83152 19.2586 9.41893 19.1584 9.02431C19.0583 8.6297 18.8705 8.26189 18.6087 7.94739C18.3469 7.63289 18.0175 7.37953 17.6443 7.20558C17.2712 7.03163 16.8635 6.94141 16.4506 6.94143V8.44043ZM15.2327 18.4414C15.8779 18.4416 16.5032 18.2204 17.0023 17.8175C17.5013 17.4146 17.8433 16.8538 17.97 16.2304L16.478 15.9354C16.4205 16.219 16.2649 16.4742 16.0379 16.6575C15.8108 16.8407 15.5262 16.9417 15.2327 16.9414V18.4414ZM12.4376 0.94143C11.8111 0.941474 11.1942 1.09292 10.6418 1.38425C10.0894 1.67557 9.61856 2.09676 9.27103 2.61043L10.5366 3.44343C10.7453 3.13509 11.0279 2.88129 11.3596 2.70649C11.6912 2.53168 12.0615 2.44129 12.4376 2.44143V0.94143ZM3.70315 16.9414C3.00286 16.9414 2.4345 16.3814 2.4345 15.6914H0.912109C0.912109 16.4208 1.20616 17.1202 1.72959 17.636C2.25301 18.1517 2.96292 18.4414 3.70315 18.4414V16.9414Z" fill="#FF0000"/>
<path d="M5.7334 7.69141V17.6914" stroke="#FF0000" stroke-width="1.5"/>
</svg>
