<svg width="16" height="15" viewBox="0 0 16 15" fill="none" xmlns="http://www.w3.org/2000/svg">
<path fill-rule="evenodd" clip-rule="evenodd" d="M6.78831 0.624255C6.86884 0.485866 6.9842 0.371042 7.12288 0.291237C7.26156 0.211431 7.41871 0.169434 7.57866 0.169434C7.7386 0.169434 7.89576 0.211431 8.03443 0.291237C8.17311 0.371042 8.28847 0.485866 8.36901 0.624255L10.4144 4.14038L14.3866 5.00219C14.5429 5.03619 14.6875 5.11061 14.8061 5.21803C14.9247 5.32545 15.013 5.46212 15.0624 5.61441C15.1118 5.76671 15.1205 5.9293 15.0875 6.08599C15.0546 6.24268 14.9812 6.38798 14.8747 6.50743L12.1671 9.54208L12.5769 13.591C12.593 13.7504 12.5672 13.9113 12.5018 14.0576C12.4365 14.2039 12.334 14.3304 12.2045 14.4246C12.075 14.5188 11.9231 14.5773 11.764 14.5944C11.6049 14.6114 11.4441 14.5863 11.2977 14.5217L7.57866 12.8801L3.85963 14.5217C3.71321 14.5863 3.55241 14.6114 3.39329 14.5944C3.23417 14.5773 3.08229 14.5188 2.95283 14.4246C2.82336 14.3304 2.72084 14.2039 2.65549 14.0576C2.59015 13.9113 2.56427 13.7504 2.58043 13.591L2.99024 9.54208L0.282566 6.50816C0.175889 6.38873 0.102363 6.24336 0.0693283 6.08658C0.0362934 5.92979 0.0449055 5.76707 0.0943047 5.61466C0.143704 5.46225 0.232162 5.32548 0.350848 5.21801C0.469534 5.11054 0.614295 5.03612 0.77068 5.00219L4.74291 4.14038L6.78831 0.624255ZM7.57866 2.17712L5.88599 5.08793C5.82199 5.1978 5.73584 5.29311 5.63303 5.36781C5.53022 5.4425 5.413 5.49493 5.28884 5.52177L2.00157 6.23481L4.24236 8.74623C4.4136 8.93823 4.4963 9.19325 4.47068 9.44901L4.13186 12.8003L7.20983 11.4416C7.32605 11.3903 7.45166 11.3638 7.57866 11.3638C7.70566 11.3638 7.83127 11.3903 7.94749 11.4416L11.0255 12.8003L10.6866 9.44901C10.6738 9.32246 10.6874 9.19462 10.7265 9.07362C10.7657 8.95263 10.8296 8.84113 10.9142 8.74623L13.1557 6.23481L9.86847 5.52177C9.74431 5.49493 9.6271 5.4425 9.52429 5.36781C9.42147 5.29311 9.33532 5.1978 9.27132 5.08793L7.57866 2.17712Z" fill="#FFC71B"/>
</svg>
