<svg width="32" height="33" viewBox="0 0 32 33" fill="none" xmlns="http://www.w3.org/2000/svg">
<path d="M26.6667 17.8717L32 22.7453V29.2433C32 30.105 31.6254 30.9314 30.9586 31.5407C30.2918 32.15 29.3874 32.4923 28.4444 32.4923H3.55556C2.61256 32.4923 1.70819 32.15 1.0414 31.5407C0.374602 30.9314 0 30.105 0 29.2433V22.7453L5.33333 17.8717H6.80889L10.3644 21.1208H6.72L3.55556 24.3698H28.4444L25.2978 21.1208H21.9022L25.4578 17.8717H26.6667ZM28.4444 29.2433V27.6188H3.55556V29.2433H28.4444ZM14.8267 21.1208L6.02667 13.1119C5.86186 12.9617 5.73111 12.7831 5.6419 12.5866C5.55269 12.3901 5.50677 12.1794 5.50677 11.9667C5.50677 11.7539 5.55269 11.5432 5.6419 11.3467C5.73111 11.1502 5.86186 10.9717 6.02667 10.8214L17.3511 0.473287C17.5139 0.322046 17.7082 0.202223 17.9227 0.120929C18.1371 0.0396345 18.3672 -0.00147474 18.5993 4.04075e-05C18.8315 0.00155556 19.0609 0.0456642 19.274 0.129749C19.4871 0.213834 19.6796 0.336182 19.84 0.489532L28.64 8.53084C29.3333 9.1644 29.3333 10.1878 28.64 10.8214L17.3333 21.1208C17.1735 21.2787 16.9797 21.4048 16.764 21.491C16.5483 21.5773 16.3154 21.6218 16.08 21.6218C15.8446 21.6218 15.6117 21.5773 15.396 21.491C15.1803 21.4048 14.9865 21.2787 14.8267 21.1208ZM18.5956 3.91724L9.77778 11.9585L16.0889 17.7093L24.8889 9.66799L18.5956 3.91724Z" fill="black"/>
</svg>
