<svg width="28" height="28" viewBox="0 0 28 28" fill="none" xmlns="http://www.w3.org/2000/svg">
<path d="M10.5001 18.865L6.45176 14.8166C6.23361 14.5985 5.93775 14.4759 5.62925 14.4759C5.32076 14.4759 5.0249 14.5985 4.80676 14.8166C4.58861 15.0348 4.46606 15.3306 4.46606 15.6391C4.46606 15.7919 4.49615 15.9431 4.55461 16.0843C4.61306 16.2254 4.69874 16.3536 4.80676 16.4616L9.68342 21.3383C10.1384 21.7933 10.8734 21.7933 11.3284 21.3383L23.6718 8.99497C23.8899 8.77683 24.0124 8.48097 24.0124 8.17247C24.0124 7.86397 23.8899 7.56811 23.6718 7.34997C23.4536 7.13183 23.1578 7.00928 22.8493 7.00928C22.5408 7.00928 22.2449 7.13183 22.0268 7.34997L10.5001 18.865Z" fill="black"/>
</svg>
